<?xml version="1.0" encoding="UTF-8"?>
<svg width="28px" height="28px" viewBox="0 0 28 28" version="1.1" xmlns="http://www.w3.org/2000/svg" xmlns:xlink="http://www.w3.org/1999/xlink">
    <!-- Generator: Sketch 63.1 (92452) - https://sketch.com -->
    <title>related-glycans-icon</title>
    <desc>Created with Sketch.</desc>
    <g id="REACT-Homepage" stroke="none" stroke-width="1" fill="none" fill-rule="evenodd">
        <g id="Artboard" transform="translate(-196.000000, -111.000000)" fill-rule="nonzero">
            <g id="related-glycans-icon" transform="translate(194.000000, 109.000000)">
                <g id="Icon" transform="translate(2.000000, 2.000000)" fill="#FFFFFF">
                    <path d="M24,20 C23.2879004,20.0037 22.5900096,20.1995931 21.98,20.567 L18.167,16.753 C19.2778616,15.0857579 19.2778616,12.9142421 18.167,11.247 L20.714,8.7 C22.0443586,9.34080229 23.6429292,8.92855235 24.4974712,7.72429341 C25.3520132,6.52003447 25.2132906,4.87500142 24.1691446,3.83085543 C23.1249986,2.78670945 21.4799655,2.64798676 20.2757066,3.5025288 C19.0714477,4.35707084 18.6591977,5.95564136 19.3,7.286 L16.753,9.833 C15.0857579,8.72213843 12.9142421,8.72213843 11.247,9.833 L7.433,6.019 C7.80023363,5.40928166 7.99612017,4.71175975 8,4 C8,1.790861 6.209139,0 4,0 C1.790861,0 0,1.790861 0,4 C0,6.209139 1.790861,8 4,8 C4.71209962,7.99629998 5.40999038,7.80040688 6.02,7.433 L9.833,11.247 C8.72213843,12.9142421 8.72213843,15.0857579 9.833,16.753 L6.019,20.567 C5.40926186,20.1998122 4.7117528,20.0039293 4,20 C1.790861,20 0,21.790861 0,24 C0,26.209139 1.790861,28 4,28 C6.209139,28 8,26.209139 8,24 C7.99629998,23.2879004 7.80040688,22.5900096 7.433,21.98 L11.247,18.167 C11.7788199,18.5214667 12.3740286,18.770008 13,18.899 L13,22.184 C11.6224533,22.6710363 10.7961279,24.0796662 11.0432043,25.5197331 C11.2902807,26.9597999 12.5388911,28.0124271 14,28.0124271 C15.4611089,28.0124271 16.7097193,26.9597999 16.9567957,25.5197331 C17.2038721,24.0796662 16.3775467,22.6710363 15,22.184 L15,18.899 C15.6259714,18.770008 16.2211801,18.5214667 16.753,18.167 L20.567,21.981 C20.1997664,22.5907183 20.0038798,23.2882403 20,24 C20,26.209139 21.790861,28 24,28 C26.209139,28 28,26.209139 28,24 C28,21.790861 26.209139,20 24,20 L24,20 Z M14,11 C15.6568542,11 17,12.3431458 17,14 C17,15.6568542 15.6568542,17 14,17 C12.3431458,17 11,15.6568542 11,14 C11.0016537,12.3438312 12.3438312,11.0016537 14,11 L14,11 Z M2,4 C2,2.8954305 2.8954305,2 4,2 C5.1045695,2 6,2.8954305 6,4 C6,5.1045695 5.1045695,6 4,6 C2.89588748,5.99889754 2.00110246,5.10411252 2,4 L2,4 Z M4,26 C2.8954305,26 2,25.1045695 2,24 C2,22.8954305 2.8954305,22 4,22 C5.1045695,22 6,22.8954305 6,24 C5.99889754,25.1041125 5.10411252,25.9988975 4,26 L4,26 Z M24,26 C22.8954305,26 22,25.1045695 22,24 C22,22.8954305 22.8954305,22 24,22 C25.1045695,22 26,22.8954305 26,24 C25.9983479,25.1038844 25.1038844,25.9983479 24,26 L24,26 Z" id="Icon-Shape"></path>
                </g>
                <rect id="ViewBox" x="0" y="0" width="32" height="32"></rect>
            </g>
        </g>
    </g>
</svg>