<?xml version="1.0" encoding="UTF-8"?>
<svg width="463px" height="463px" viewBox="0 0 463 463" version="1.1" xmlns="http://www.w3.org/2000/svg" xmlns:xlink="http://www.w3.org/1999/xlink">
    <!-- Generator: Sketch 63.1 (92452) - https://sketch.com -->
    <title>api-img</title>
    <desc>Created with Sketch.</desc>
    <g id="api-img" stroke="none" stroke-width="1" fill="none" fill-rule="evenodd">
        <g id="API-img" transform="translate(122.000000, 126.000000)" fill="#000000">
            <g id="Icon" fill-rule="nonzero">
                <path d="M111.358815,73.5352942 C110.987579,73.0609456 110.418732,72.7837918 109.816384,72.7837918 C109.214037,72.7837918 108.645189,73.0609456 108.273953,73.5352942 L80.8529611,108.227746 C80.3917103,108.816759 80.3073101,109.617449 80.6356132,110.289688 C80.9639162,110.961928 81.6472701,111.387667 82.3953919,111.386057 L100.48835,111.386057 L100.48835,170.732918 C100.48835,171.810172 101.369739,172.691561 102.446993,172.691561 L117.13681,172.691561 C118.214063,172.691561 119.095452,171.810172 119.095452,170.732918 L119.095452,111.41054 L137.237376,111.41054 C138.877739,111.41054 139.783611,109.525346 138.779807,108.252229 L111.358815,73.5352942 Z" id="Icon-Path"></path>
                <path d="M183.118572,50.9374586 C171.905345,21.3619599 143.333651,0.331038136 109.86535,0.331038136 C76.3970499,0.331038136 47.8253553,21.3374768 36.6121281,50.9129756 C15.6301725,56.4216571 0.132415254,75.5429025 0.132415254,98.2631532 C0.132415254,125.3169 22.044726,147.229211 49.0739898,147.229211 L58.8916843,147.229211 C59.9689376,147.229211 60.8503266,146.347822 60.8503266,145.270569 L60.8503266,130.580751 C60.8503266,129.503498 59.9689376,128.622109 58.8916843,128.622109 L49.0739898,128.622109 C40.8232091,128.622109 33.062089,125.341383 27.2840942,119.392007 C21.5305824,113.467114 18.4702038,105.485647 18.7395171,97.210383 C18.9598644,90.7468634 21.163337,84.6750723 25.1540707,79.5581193 C29.2427365,74.3432341 34.9717652,70.5483647 41.3373527,68.8590357 L50.6164206,66.4352158 L54.0195616,57.4744273 C56.1251021,51.8922967 59.0630655,46.6774116 62.7600029,41.9521871 C66.4097304,37.2687724 70.7330088,33.1517572 75.5891099,29.7351557 C85.6516348,22.6595604 97.5014207,18.913657 109.86535,18.913657 C122.22928,18.913657 134.079066,22.6595604 144.141591,29.7351557 C149.013713,33.1627797 153.322726,37.2759286 156.970698,41.9521871 C160.667635,46.6774116 163.605598,51.9167798 165.711139,57.4744273 L169.089797,66.4107328 L178.344382,68.8590357 C191.614183,72.4335579 200.893251,84.5036911 200.893251,98.2631532 C200.893251,106.367036 197.734941,114.005741 192.005912,119.734769 C186.330906,125.442959 178.60792,128.643238 170.558779,128.622109 L160.741084,128.622109 C159.663831,128.622109 158.782442,129.503498 158.782442,130.580751 L158.782442,145.270569 C158.782442,146.347822 159.663831,147.229211 160.741084,147.229211 L170.558779,147.229211 C197.588042,147.229211 219.500353,125.3169 219.500353,98.2631532 C219.500353,75.5673856 204.051562,56.4706231 183.118572,50.9374586 Z" id="Icon-Path"></path>
            </g>
            <text id="API-text" font-family="Tahoma-Bold, Tahoma" font-size="63.559322" font-weight="bold" letter-spacing="2.6483051">
                <tspan x="44.4915254" y="237.022599">API</tspan>
            </text>
        </g>
    </g>
</svg>