<?xml version="1.0" encoding="UTF-8"?>
<svg width="463px" height="463px" viewBox="0 0 463 463" version="1.1" xmlns="http://www.w3.org/2000/svg" xmlns:xlink="http://www.w3.org/1999/xlink">
    <!-- Generator: Sketch 63.1 (92452) - https://sketch.com -->
    <title>api-img</title>
    <desc>Created with Sketch.</desc>
    <g id="api-img" stroke="none" stroke-width="1" fill="none" fill-rule="evenodd">
        <g id="API-img" transform="translate(76.000000, 64.000000)" fill="#000000">
            <g id="Icon" fill-rule="nonzero">
                <path d="M157.684082,104.125977 C157.158412,103.454299 156.352924,103.061849 155.5,103.061849 C154.647076,103.061849 153.841588,103.454299 153.315918,104.125977 L114.487793,153.250488 C113.834662,154.084531 113.715151,155.218307 114.180028,156.170198 C114.644905,157.12209 115.612534,157.724937 116.671875,157.722656 L142.291504,157.722656 L142.291504,241.757813 C142.291504,243.283203 143.539551,244.53125 145.064941,244.53125 L165.865723,244.53125 C167.391113,244.53125 168.63916,243.283203 168.63916,241.757813 L168.63916,157.757324 L194.328125,157.757324 C196.650879,157.757324 197.933594,155.087891 196.512207,153.285156 L157.684082,104.125977 Z" id="Icon-Path"></path>
                <path d="M259.295898,72.1274414 C243.417969,30.2485352 202.960449,0.46875 155.569336,0.46875 C108.178223,0.46875 67.7207031,30.2138672 51.8427734,72.0927734 C22.1323242,79.8930664 0.1875,106.96875 0.1875,139.140625 C0.1875,177.44873 31.215332,208.476562 69.4887695,208.476562 L83.390625,208.476562 C84.9160156,208.476562 86.1640625,207.228516 86.1640625,205.703125 L86.1640625,184.902344 C86.1640625,183.376953 84.9160156,182.128906 83.390625,182.128906 L69.4887695,182.128906 C57.8056641,182.128906 46.815918,177.483398 38.6342773,169.059082 C30.4873047,160.669434 26.1538086,149.367676 26.5351562,137.649902 C26.847168,128.497559 29.9672852,119.899902 35.6181641,112.654297 C41.4077148,105.27002 49.5200195,99.8964844 58.5336914,97.5043945 L71.6728516,94.0722656 L76.4916992,81.3837891 C79.4731445,73.4794922 83.6333008,66.0952148 88.8681641,59.4042969 C94.0361782,52.7725817 100.15794,46.9428882 107.03418,42.1049805 C121.282715,32.0859375 138.062012,26.7817383 155.569336,26.7817383 C173.07666,26.7817383 189.855957,32.0859375 204.104492,42.1049805 C211.003418,46.9584961 217.10498,52.7827148 222.270508,59.4042969 C227.505371,66.0952148 231.665527,73.5141602 234.646973,81.3837891 L239.431152,94.0375977 L252.535645,97.5043945 C271.325684,102.565918 284.464844,119.657227 284.464844,139.140625 C284.464844,150.615723 279.992676,161.432129 271.880371,169.544434 C263.844563,177.62723 252.908814,182.158824 241.51123,182.128906 L227.609375,182.128906 C226.083984,182.128906 224.835938,183.376953 224.835938,184.902344 L224.835938,205.703125 C224.835938,207.228516 226.083984,208.476562 227.609375,208.476562 L241.51123,208.476562 C279.784668,208.476562 310.8125,177.44873 310.8125,139.140625 C310.8125,107.003418 288.937012,79.9624023 259.295898,72.1274414 Z" id="Icon-Path"></path>
            </g>
            <text id="API-text" font-family="Tahoma-Bold, Tahoma" font-size="90" font-weight="bold" letter-spacing="3.75">
                <tspan x="63" y="335">API</tspan>
            </text>
        </g>
    </g>
</svg>