<?xml version="1.0" encoding="UTF-8"?>
<svg width="400px" height="300px" viewBox="0 0 400 300" version="1.1" xmlns="http://www.w3.org/2000/svg" xmlns:xlink="http://www.w3.org/1999/xlink">
    <!-- Generator: Sketch 63.1 (92452) - https://sketch.com -->
    <title>composition-img</title>
    <desc>Created with Sketch.</desc>
    <g id="composition-img" stroke="none" stroke-width="1" fill="none" fill-rule="evenodd">
        <g transform="translate(82.000000, 32.000000)" fill="#5F5F5F" fill-rule="nonzero" id="Icon">
            <g transform="translate(0.090498, 0.090498)">
                <path d="M217.19457,0 L18.0995475,0 C8.10757897,0.00997701049 0.00997701049,8.10757897 0,18.0995475 L0,217.19457 C0.00997701049,227.186539 8.10757897,235.284141 18.0995475,235.294118 L217.19457,235.294118 C227.184475,235.279166 235.279166,227.184475 235.294118,217.19457 L235.294118,18.0995475 C235.284141,8.10757897 227.186539,0.00997701049 217.19457,0 Z M217.19457,54.2986425 L126.696833,54.2986425 L126.696833,18.0995475 L217.19457,18.0995475 L217.19457,54.2986425 Z M108.597285,217.19457 L72.39819,217.19457 L72.39819,180.995475 L108.597285,180.995475 L108.597285,217.19457 Z M108.597285,162.895928 L72.39819,162.895928 L72.39819,126.696833 L108.597285,126.696833 L108.597285,162.895928 Z M54.2986425,162.895928 L18.0995475,162.895928 L18.0995475,126.696833 L54.2986425,126.696833 L54.2986425,162.895928 Z M72.39819,108.597285 L72.39819,72.39819 L162.895928,72.39819 L162.895928,108.597285 L72.39819,108.597285 Z M72.39819,54.2986425 L72.39819,18.0995475 L108.597285,18.0995475 L108.597285,54.2986425 L72.39819,54.2986425 Z M180.995475,72.39819 L217.19457,72.39819 L217.19457,108.597285 L180.995475,108.597285 L180.995475,72.39819 Z M54.2986425,18.0995475 L54.2986425,108.597285 L18.0995475,108.597285 L18.0995475,18.0995475 L54.2986425,18.0995475 Z M18.0995475,180.995475 L54.2986425,180.995475 L54.2986425,217.19457 L18.0995475,217.19457 L18.0995475,180.995475 Z M126.696833,217.19457 L126.696833,126.696833 L217.20362,126.696833 L217.21267,217.19457 L126.696833,217.19457 Z" id="Icon-Shape"></path>
            </g>
        </g>
    </g>
</svg>