<?xml version="1.0" encoding="UTF-8"?>
<svg width="463px" height="463px" viewBox="0 0 463 463" version="1.1" xmlns="http://www.w3.org/2000/svg" xmlns:xlink="http://www.w3.org/1999/xlink">
    <!-- Generator: Sketch 63.1 (92452) - https://sketch.com -->
    <title>data-img</title>
    <desc>Created with Sketch.</desc>
    <g id="data-img" stroke="none" stroke-width="1" fill="none" fill-rule="evenodd">
        <g id="data-model" transform="translate(82.000000, 78.000000)" stroke="#000000">
            <g id="Group-2" transform="translate(108.000000, 0.000000)" stroke-width="4">
                <rect id="Rectangle" fill="#FFFFFF" x="0" y="0" width="80" height="84" rx="16"></rect>
                <path d="M64,0 C72.836556,-1.623249e-15 80,7.163444 80,16 L80,24 L0,24 L0,16 C-1.082166e-15,7.163444 7.163444,1.623249e-15 16,0 L64,0 Z" id="Combined-Shape" fill="#000000"></path>
            </g>
            <g id="Group-2-Copy" transform="translate(0.000000, 112.000000)" stroke-width="4">
                <rect id="Rectangle" fill="#FFFFFF" x="0" y="0" width="80" height="84" rx="16"></rect>
                <path d="M64,0 C72.836556,-1.623249e-15 80,7.163444 80,16 L80,24 L0,24 L0,16 C-1.082166e-15,7.163444 7.163444,1.623249e-15 16,0 L64,0 Z" id="Combined-Shape" fill="#000000"></path>
            </g>
            <g id="Group-2-Copy-2" transform="translate(108.000000, 112.000000)" stroke-width="4">
                <rect id="Rectangle" fill="#FFFFFF" x="0" y="0" width="80" height="84" rx="16"></rect>
                <path d="M64,0 C72.836556,-1.623249e-15 80,7.163444 80,16 L80,24 L0,24 L0,16 C-1.082166e-15,7.163444 7.163444,1.623249e-15 16,0 L64,0 Z" id="Combined-Shape" fill="#000000"></path>
            </g>
            <g id="Group-2-Copy-3" transform="translate(220.000000, 112.000000)" stroke-width="4">
                <rect id="Rectangle" fill="#FFFFFF" x="0" y="0" width="80" height="84" rx="16"></rect>
                <path d="M64,0 C72.836556,-1.623249e-15 80,7.163444 80,16 L80,24 L0,24 L0,16 C-1.082166e-15,7.163444 7.163444,1.623249e-15 16,0 L64,0 Z" id="Combined-Shape" fill="#000000"></path>
            </g>
            <g id="Group-2-Copy-4" transform="translate(220.000000, 224.000000)" stroke-width="4">
                <rect id="Rectangle" fill="#FFFFFF" x="0" y="0" width="80" height="84" rx="16"></rect>
                <path d="M64,0 C72.836556,-1.623249e-15 80,7.163444 80,16 L80,24 L0,24 L0,16 C-1.082166e-15,7.163444 7.163444,1.623249e-15 16,0 L64,0 Z" id="Combined-Shape" fill="#000000"></path>
            </g>
            <g id="Group-2-Copy-5" transform="translate(0.000000, 224.000000)" stroke-width="4">
                <rect id="Rectangle" fill="#FFFFFF" x="0" y="0" width="80" height="84" rx="16"></rect>
                <path d="M64,0 C72.836556,-1.623249e-15 80,7.163444 80,16 L80,24 L0,24 L0,16 C-1.082166e-15,7.163444 7.163444,1.623249e-15 16,0 L64,0 Z" id="Combined-Shape" fill="#000000"></path>
            </g>
            <line x1="148" y1="88" x2="148" y2="108" id="Line" stroke-width="8" stroke-linecap="square"></line>
            <line x1="40" y1="200" x2="40" y2="220" id="Line-Copy" stroke-width="8" stroke-linecap="square"></line>
            <line x1="260" y1="200" x2="260" y2="220" id="Line-Copy-4" stroke-width="8" stroke-linecap="square"></line>
            <polyline id="Line-Copy-5" stroke-width="8" stroke-linecap="square" points="148 200 148 268 216 268"></polyline>
            <line x1="92" y1="148" x2="92" y2="168" id="Line-Copy-2" stroke-width="8" stroke-linecap="square" transform="translate(92.000000, 158.000000) rotate(-90.000000) translate(-92.000000, -158.000000) "></line>
            <line x1="204" y1="148" x2="204" y2="168" id="Line-Copy-3" stroke-width="8" stroke-linecap="square" transform="translate(204.000000, 158.000000) rotate(-90.000000) translate(-204.000000, -158.000000) "></line>
        </g>
    </g>
</svg>