<?xml version="1.0" encoding="UTF-8"?>
<svg width="400px" height="300px" viewBox="0 0 400 300" version="1.1" xmlns="http://www.w3.org/2000/svg" xmlns:xlink="http://www.w3.org/1999/xlink">
    <!-- Generator: Sketch 63.1 (92452) - https://sketch.com -->
    <title>gnome-browser-img</title>
    <desc>Created with Sketch.</desc>
    <g id="gnome-browser-img" stroke="none" stroke-width="1" fill="none" fill-rule="evenodd">
        <g id="gnome-browser" transform="translate(75.000000, 25.000000)" fill="#5F5F5F">
            <g id="Icon" transform="translate(0.061516, 0.061516)">
                <path d="M124.446358,0 C144.083451,0 160.002461,15.9190093 160.002461,35.5561024 C160.002461,55.1931955 144.083451,71.1122047 124.446358,71.1122047 C104.809265,71.1122047 88.8902559,55.1931955 88.8902559,35.5561024 C88.8902559,15.9190093 104.809265,0 124.446358,0 Z M124.446358,17.7780512 C114.627812,17.7780512 106.668307,25.7375558 106.668307,35.5561024 C106.668307,45.3746489 114.627812,53.3341535 124.446358,53.3341535 C134.264905,53.3341535 142.224409,45.3746489 142.224409,35.5561024 C142.224409,25.7375558 134.264905,17.7780512 124.446358,17.7780512 Z" id="Shape-1"></path>
                <path d="M124.446358,88.8902559 C144.083451,88.8902559 160.002461,104.809265 160.002461,124.446358 C160.002461,144.083451 144.083451,160.002461 124.446358,160.002461 C104.809265,160.002461 88.8902559,144.083451 88.8902559,124.446358 C88.8902559,104.809265 104.809265,88.8902559 124.446358,88.8902559 Z M124.446358,106.668307 C114.627812,106.668307 106.668307,114.627812 106.668307,124.446358 C106.668307,134.264905 114.627812,142.224409 124.446358,142.224409 C134.264905,142.224409 142.224409,134.264905 142.224409,124.446358 C142.224409,114.627812 134.264905,106.668307 124.446358,106.668307 Z" id="Shape-2"></path>
                <path d="M35.5561024,177.780512 C55.1931955,177.780512 71.1122047,193.699521 71.1122047,213.336614 C71.1122047,232.973707 55.1931955,248.892717 35.5561024,248.892717 C15.9190093,248.892717 0,232.973707 0,213.336614 C0,193.699521 15.9190093,177.780512 35.5561024,177.780512 Z M35.5561024,195.558563 C25.7375558,195.558563 17.7780512,203.518068 17.7780512,213.336614 C17.7780512,223.155161 25.7375558,231.114665 35.5561024,231.114665 C45.3746489,231.114665 53.3341535,223.155161 53.3341535,213.336614 C53.3341535,203.518068 45.3746489,195.558563 35.5561024,195.558563 Z" id="Shape-3"></path>
                <path d="M124.446358,177.780512 C144.083451,177.780512 160.002461,193.699521 160.002461,213.336614 C160.002461,232.973707 144.083451,248.892717 124.446358,248.892717 C104.809265,248.892717 88.8902559,232.973707 88.8902559,213.336614 C88.8902559,193.699521 104.809265,177.780512 124.446358,177.780512 Z M124.446358,195.558563 C114.627812,195.558563 106.668307,203.518068 106.668307,213.336614 C106.668307,223.155161 114.627812,231.114665 124.446358,231.114665 C134.264905,231.114665 142.224409,223.155161 142.224409,213.336614 C142.224409,203.518068 134.264905,195.558563 124.446358,195.558563 Z" id="Shape-4"></path>
                <path d="M213.336614,177.780512 C232.973707,177.780512 248.892717,193.699521 248.892717,213.336614 C248.892717,232.973707 232.973707,248.892717 213.336614,248.892717 C193.699521,248.892717 177.780512,232.973707 177.780512,213.336614 C177.780512,193.699521 193.699521,177.780512 213.336614,177.780512 Z M213.336614,195.558563 C203.518068,195.558563 195.558563,203.518068 195.558563,213.336614 C195.558563,223.155161 203.518068,231.114665 213.336614,231.114665 C223.155161,231.114665 231.114665,223.155161 231.114665,213.336614 C231.114665,203.518068 223.155161,195.558563 213.336614,195.558563 Z" id="Shape-5"></path>
                <rect id="Rectangle" x="116.446235" y="66.6676919" width="17.7780512" height="26.6670768"></rect>
                <rect id="Rectangle-2" x="116.446235" y="155.557948" width="17.7780512" height="26.6670768"></rect>
                <polygon id="Rectangle-3" transform="translate(78.063250, 167.664627) rotate(45.000000) translate(-78.063250, -167.664627) " points="69.1742239 136.553038 86.9522751 136.553038 86.9522751 198.776217 69.1742239 198.776217"></polygon>
                <polygon id="Rectangle-4" transform="translate(172.096506, 166.737822) scale(-1, 1) rotate(45.000000) translate(-172.096506, -166.737822) " points="163.20748 135.626232 180.985531 135.626232 180.985531 197.849411 163.20748 197.849411"></polygon>
            </g>
        </g>
    </g>
</svg>