<?xml version="1.0" encoding="UTF-8"?>
<svg width="463px" height="463px" viewBox="0 0 463 463" version="1.1" xmlns="http://www.w3.org/2000/svg" xmlns:xlink="http://www.w3.org/1999/xlink">
    <!-- Generator: Sketch 63.1 (92452) - https://sketch.com -->
    <title>sparql-img</title>
    <desc>Created with Sketch.</desc>
    <g id="sparql-img" stroke="none" stroke-width="1" fill="none" fill-rule="evenodd">
        <g id="SPARQL" transform="translate(78.000000, 68.000000)">
            <rect id="Rectangle" stroke="#000000" stroke-width="7" x="0" y="21" width="308" height="308"></rect>
            <rect id="Rectangle" fill="#000000" x="0" y="234.5" width="308" height="94.5"></rect>
            <text font-family="Tahoma-Bold, Tahoma" font-size="63" font-weight="bold" letter-spacing="2.625" fill="#FFFFFF">
                <tspan x="17.5" y="304.5">SPARQL</tspan>
            </text>
            <g id="sparql" transform="translate(35.000000, 0.000000)" fill-rule="nonzero">
                <path d="M210.000556,165.245337 C208.50898,164.503307 206.768807,163.761277 205.277231,163.019248 L206.520211,163.019248 C206.520211,163.019248 196.079177,158.56707 195.333388,125.423082 C194.339004,92.5264368 205.277231,86.8375433 205.277231,86.8375433 L205.277231,86.8375433 C213.480901,82.632709 220.441591,76.2017859 224.91632,67.544774 C236.848931,45.0365431 228.396665,17.3341051 205.774423,5.2142885 C181.163413,-6.41084173 153.320654,1.99882695 141.388043,24.5070578 C136.416122,33.6587561 135.173141,43.7998271 136.664718,53.4462118 L136.167526,52.7041822 C136.167526,52.7041822 138.902082,64.5766556 110.562131,82.1380226 C82.4707761,99.6993895 69.5437808,90.7950345 69.5437808,90.7950345 L70.289569,92.0317504 C69.5437808,91.537064 68.7979926,91.0423777 67.8036084,90.5476913 C45.4299628,78.4278746 17.3386077,87.0848865 5.40599676,109.593117 C-6.52661423,132.101348 1.92565189,159.803786 24.5478936,171.923603 C41.4524258,180.827958 61.0915147,178.354526 75.2614903,167.224082 L75.0128942,167.718769 C75.0128942,167.718769 85.2053328,159.3091 114.788264,175.139064 C138.156294,187.506224 141.636639,199.873384 142.133831,204.325562 C141.636639,221.392242 150.337501,238.21158 166.496245,246.621248 C189.118487,258.493722 216.961246,250.084053 229.142453,227.575822 C241.075064,205.067591 232.374202,177.365153 210.000556,165.245337 Z M157.795383,171.428916 C154.066442,172.665632 143.376811,174.149692 121.003166,162.277218 C96.6407516,149.168029 92.9118107,138.284928 92.4146186,135.069467 C92.6632146,131.111975 92.6632146,127.154484 91.9174264,123.196993 L92.1660225,123.444336 C92.1660225,123.444336 90.177254,112.808579 118.020013,95.7418984 C142.879619,80.4066202 154.315038,83.3747386 156.303807,84.1167682 C157.546787,85.1061409 159.038363,85.8481705 160.52994,86.5902001 C163.264496,88.0742593 166.247649,89.3109753 169.230802,90.0530049 C172.711147,93.2684664 178.926048,102.420165 179.671836,126.907141 C180.417625,151.394118 173.208339,160.793159 169.230802,164.008621 C165.004669,165.987366 161.027132,168.460798 157.795383,171.428916 Z" id="Shape" fill="#0C479C"></path>
                <path d="M156.588602,19.6755961 C143.109586,34.220839 142.859975,55.6689092 155.839768,67.9953863 C149.349871,61.8321478 149.599483,49.0126116 156.089379,36.932664 C156.838213,35.9465458 159.334327,33.2347209 162.828887,34.4673686 C163.078498,34.4673686 163.328109,34.7138981 163.577721,34.7138981 C164.326555,34.9604277 165.325001,34.9604277 166.073835,34.9604277 C171.565285,34.7138981 175.559068,30.2763664 175.309456,24.8527164 C175.309456,22.387421 174.311011,20.4151847 172.563731,18.6894779 C185.044301,10.554003 199.27215,9.56788484 205.262824,14.9915348 L205.512435,14.9915348 C192.283031,2.66505766 170.317228,4.88382354 156.588602,19.6755961 Z M20.8000023,105.960936 C7.32098694,120.506179 7.07137554,141.954249 20.0511681,154.280726 C13.5612718,148.117487 13.8108832,135.297951 20.3007795,123.218004 C21.0496137,122.231886 23.5457277,119.520061 27.0402872,120.752708 C27.2898986,120.752708 27.53951,120.999238 27.7891214,120.999238 C28.5379556,121.245767 29.5364012,121.245767 30.2852354,121.245767 C35.7766861,120.999238 39.7704684,116.561706 39.520857,111.138056 C39.520857,108.672761 38.5224114,106.700524 36.7751317,104.974818 C49.2557015,96.8393427 63.483551,95.8532246 69.4742245,101.276874 L69.7238359,101.276874 C56.4944319,89.1969269 34.5286291,91.1691633 20.8000023,105.960936 Z M164.576166,179.18021 C151.097151,193.725453 150.84754,215.173523 163.827332,227.5 C157.337436,221.336761 157.587047,208.517225 164.076944,196.437278 C164.825778,195.45116 167.321892,192.739335 170.816451,193.971982 C171.066063,193.971982 171.315674,194.218512 171.565285,194.218512 C172.31412,194.465041 173.312565,194.465041 174.061399,194.465041 C179.55285,194.218512 183.546632,189.78098 183.297021,184.35733 C183.297021,181.892035 182.298576,179.919798 180.551296,178.194092 C193.031866,170.058617 207.259715,169.072499 213.250389,174.496148 L213.5,174.496148 C200.270596,162.169671 178.304793,164.388437 164.576166,179.18021 Z" id="Shape" fill="#FFFFFF"></path>
            </g>
        </g>
    </g>
</svg>