<?xml version="1.0" encoding="UTF-8"?>
<svg width="217px" height="36px" viewBox="0 0 217 36" version="1.1" xmlns="http://www.w3.org/2000/svg" xmlns:xlink="http://www.w3.org/1999/xlink">
    <!-- Generator: Sketch 48.2 (47327) - http://www.bohemiancoding.com/sketch -->
    <title>logo-medium-white</title>
    <desc>Created with Sketch.</desc>
    <defs>
        <rect id="path-1" x="27.8050022" y="-2.41030704" width="2.54508857" height="30" rx="1.27254428"></rect>
        <path d="M45.6887629,9.61877848 L53.3828493,0.449323328 C53.8346049,-0.0890579166 54.6372693,-0.159281955 55.1756505,0.292473549 C55.7140318,0.744229053 55.7842558,1.54689348 55.3325003,2.08527472 L47.3266376,11.6262904 C47.1182898,11.8745896 46.8353031,12.023311 46.5380261,12.0671748 C46.2501531,12.2449456 45.8924452,12.3082246 45.5398427,12.213745 L19.0204347,5.10789103 C18.3415754,4.92599125 17.9387102,4.22820819 18.12061,3.54934895 C18.3025098,2.87048971 19.0002928,2.46762447 19.6791521,2.64952425 L45.6887629,9.61877848 Z" id="path-2"></path>
        <path d="M28.2455467,21.6297892 L35.9396331,12.4603341 C36.3913886,11.9219528 37.1940531,11.8517288 37.7324343,12.3034843 C38.2708156,12.7552398 38.3410396,13.5579042 37.8892841,14.0962854 L29.8834213,23.6373011 C29.6750736,23.8856003 29.3920869,24.0343218 29.0948099,24.0781855 C28.8069369,24.2559563 28.449229,24.3192353 28.0966265,24.2247557 L1.57721845,17.1189018 C0.898359205,16.937002 0.495493968,16.2392189 0.677393753,15.5603597 C0.859293538,14.8815004 1.5570766,14.4786352 2.23593584,14.660535 L28.2455467,21.6297892 Z" id="path-3"></path>
    </defs>
    <g id="logo-medium-white" stroke="none" stroke-width="1" fill="none" fill-rule="evenodd" transform="translate(-6.000000, -2.000000)">
        <g transform="translate(5.000000, -3.000000)">
            <g id="Group" transform="translate(162.000000, 12.000000)">
                <g id="Rectangle-13" transform="translate(29.077546, 12.589693) rotate(-75.000000) translate(-29.077546, -12.589693) ">
                    <use fill="#FFFFFF" fill-rule="evenodd" xlink:href="#path-1"></use>
                    <rect stroke="#FFFFFF" stroke-width="2.5" x="29.0550022" y="-1.16030704" width="1" height="27.5" rx="0.5"></rect>
                </g>
                <g id="Combined-Shape">
                    <use fill="#FFFFFF" fill-rule="evenodd" xlink:href="#path-2"></use>
                    <path stroke="#FFFFFF" stroke-width="2.5" d="M45.9254873,10.9763038 L19.3556282,3.85693154 C19.3436016,3.85370902 19.3312398,3.86084614 19.3280173,3.87287275 C19.3247947,3.88489936 19.3319319,3.89726123 19.3439585,3.90048375 L45.8633665,11.0063377 C45.8704838,11.0082448 45.8748606,11.0075674 45.8812486,11.0036226 L45.9254873,10.9763038 Z M46.2963869,10.8392952 L46.3555618,10.8305638 C46.3616868,10.8296601 46.3647406,10.8279798 46.369082,10.8228059 L54.3749447,1.28179021 C54.382948,1.2722523 54.3817039,1.25803236 54.372166,1.2500291 C54.3626281,1.24202584 54.3484082,1.24326993 54.3404049,1.25280784 L46.2963869,10.8392952 Z"></path>
                </g>
                <g id="Combined-Shape-Copy" transform="translate(19.323192, 18.131364) scale(-1, -1) translate(-19.323192, -18.131364) ">
                    <use fill="#FFFFFF" fill-rule="evenodd" xlink:href="#path-3"></use>
                    <path stroke="#FFFFFF" stroke-width="2.5" d="M28.4822711,22.9873145 L1.91241203,15.8679423 C1.90038542,15.8647197 1.88802356,15.8718569 1.88480104,15.8838835 C1.88157852,15.8959101 1.88871564,15.908272 1.90074225,15.9114945 L28.4201503,23.0173484 C28.4272676,23.0192555 28.4316444,23.0185781 28.4380324,23.0146333 L28.4822711,22.9873145 Z M28.8531707,22.8503059 L28.9123456,22.8415745 C28.9184706,22.8406708 28.9215243,22.8389906 28.9258658,22.8338166 L36.9317285,13.2928009 C36.9397318,13.283263 36.9384877,13.2690431 36.9289498,13.2610398 C36.9194119,13.2530366 36.9051919,13.2542806 36.8971887,13.2638186 L28.8531707,22.8503059 Z"></path>
                </g>
            </g>
            <text id="GlyGen" font-family="Georgia-Bold, Georgia" font-size="36" font-weight="bold" letter-spacing="2" fill="#FFFFFF">
                <tspan x="0" y="33">GlyGe</tspan>
                <tspan x="121.322266" y="33">n</tspan>
            </text>
        </g>
    </g>
</svg>